{"accessors":[{"bufferView":2,"componentType":5126,"count":65532,"max":[16.88868522644043,16.09394645690918,28.486732482910156],"min":[-16.15011215209961,-17.364606857299805,2.4038522243499756],"type":"VEC3"},{"bufferView":2,"byteOffset":786384,"componentType":5126,"count":65532,"max":[0.9999907612800598,0.9999693632125854,0.999955952167511],"min":[-0.999999463558197,-0.9999978542327881,-0.9999926090240479],"type":"VEC3"},{"bufferView":3,"componentType":5126,"count":65532,"max":[0.9999934434890747,0.9999997019767761,0.9999895095825195,1],"min":[-0.9999936819076538,-0.9999863505363464,-0.9999991655349731,-1],"type":"VEC4"},{"bufferView":1,"componentType":5126,"count":65532,"max":[1,626.2456665039062],"min":[0,0],"type":"VEC2"},{"bufferView":1,"byteOffset":524256,"componentType":5126,"count":65532,"max":[1,626.2456665039062],"min":[0,0],"type":"VEC2"},{"bufferView":1,"byteOffset":1048512,"componentType":5126,"count":65532,"max":[1,626.2456665039062],"min":[0,0],"type":"VEC2"},{"bufferView":0,"componentType":5125,"count":262113,"type":"SCALAR"},{"bufferView":2,"byteOffset":1572768,"componentType":5126,"count":65532,"max":[16.80617904663086,15.972331047058105,31.568811416625977],"min":[-13.463757514953613,-15.463213920593262,0],"type":"VEC3"},{"bufferView":2,"byteOffset":2359152,"componentType":5126,"count":65532,"max":[1,1,0.9999452233314514],"min":[-1,-1,-0.9999845027923584],"type":"VEC3"},{"bufferView":3,"byteOffset":1048512,"componentType":5126,"count":65532,"max":[1,1,0.9999822378158569,1],"min":[-1,-1,-0.9999905824661255,-1],"type":"VEC4"},{"bufferView":1,"byteOffset":1572768,"componentType":5126,"count":65532,"max":[1,601.8679809570312],"min":[0,0],"type":"VEC2"},{"bufferView":1,"byteOffset":2097024,"componentType":5126,"count":65532,"max":[1,601.8679809570312],"min":[0,0],"type":"VEC2"},{"bufferView":1,"byteOffset":2621280,"componentType":5126,"count":65532,"max":[1,601.8679809570312],"min":[0,0],"type":"VEC2"},{"bufferView":0,"byteOffset":1048452,"componentType":5125,"count":263085,"type":"SCALAR"},{"bufferView":2,"byteOffset":3145536,"componentType":5126,"count":65532,"max":[16.413705825805664,16.81608772277832,25.195964813232422],"min":[-18.92217445373535,-14.415013313293457,2.5885281562805176],"type":"VEC3"},{"bufferView":2,"byteOffset":3931920,"componentType":5126,"count":65532,"max":[0.9999881982803345,0.9999911785125732,0.9999945163726807],"min":[-0.9999873042106628,-0.9999982118606567,-0.9999528527259827],"type":"VEC3"},{"bufferView":3,"byteOffset":2097024,"componentType":5126,"count":65532,"max":[0.9999874830245972,0.9999971389770508,0.999980092048645,1],"min":[-0.9999858736991882,-0.9999885559082031,-0.9999945759773254,-1],"type":"VEC4"},{"bufferView":1,"byteOffset":3145536,"componentType":5126,"count":65532,"max":[1,612.6806640625],"min":[0,0],"type":"VEC2"},{"bufferView":1,"byteOffset":3669792,"componentType":5126,"count":65532,"max":[1,612.6806640625],"min":[0,0],"type":"VEC2"},{"bufferView":1,"byteOffset":4194048,"componentType":5126,"count":65532,"max":[1,612.6806640625],"min":[0,0],"type":"VEC2"},{"bufferView":0,"byteOffset":2100792,"componentType":5125,"count":268110,"type":"SCALAR"},{"bufferView":2,"byteOffset":4718304,"componentType":5126,"count":19882,"max":[14.585488319396973,15.602933883666992,22.11785125732422],"min":[-9.306170463562012,-16.193370819091797,4.653660774230957],"type":"VEC3"},{"bufferView":2,"byteOffset":4956888,"componentType":5126,"count":19882,"max":[0.9999991655349731,0.9999845623970032,0.9998977184295654],"min":[-0.9999994039535522,-0.9999209046363831,-0.999894917011261],"type":"VEC3"},{"bufferView":3,"byteOffset":3145536,"componentType":5126,"count":19882,"max":[0.9999783635139465,0.9999905228614807,0.9999982118606567,1],"min":[-0.9999812841415405,-0.9999808669090271,-0.9999780654907227,-1],"type":"VEC4"},{"bufferView":1,"byteOffset":4718304,"componentType":5126,"count":19882,"max":[1,373.3106689453125],"min":[0,0],"type":"VEC2"},{"bufferView":1,"byteOffset":4877360,"componentType":5126,"count":19882,"max":[1,373.3106689453125],"min":[0,0],"type":"VEC2"},{"bufferView":1,"byteOffset":5036416,"componentType":5126,"count":19882,"max":[1,373.3106689453125],"min":[0,0],"type":"VEC2"},{"bufferView":0,"byteOffset":3173232,"componentType":5125,"count":81354,"type":"SCALAR"},{"bufferView":2,"byteOffset":5195472,"componentType":5126,"count":47976,"max":[10.78104019165039,32.45708084106445,15.302310943603516],"min":[-45.6077880859375,-22.289384841918945,-32.57073211669922],"type":"VEC3"},{"bufferView":2,"byteOffset":5771184,"componentType":5126,"count":47976,"max":[0.9909805059432983,0.9973347783088684,1],"min":[-0.998149573802948,-0.9994195699691772,-0.5214895009994507],"type":"VEC3"},{"bufferView":3,"byteOffset":3463648,"componentType":5126,"count":47976,"max":[0.9999800324440002,0.9999986290931702,0.9961594343185425,1],"min":[-0.9999980926513672,-0.999927818775177,-0.976311206817627,1],"type":"VEC4"},{"bufferView":1,"byteOffset":5195472,"componentType":5126,"count":47976,"max":[1.1319578886032104,1.040675163269043],"min":[-0.13195788860321045,-0.04067504405975342],"type":"VEC2"},{"bufferView":1,"byteOffset":5579280,"componentType":5126,"count":47976,"max":[1.1319578886032104,1.040675163269043],"min":[-0.13195788860321045,-0.04067504405975342],"type":"VEC2"},{"bufferView":1,"byteOffset":5963088,"componentType":5126,"count":47976,"max":[1.1319578886032104,1.040675163269043],"min":[-0.13195788860321045,-0.04067504405975342],"type":"VEC2"},{"bufferView":0,"byteOffset":3498648,"componentType":5125,"count":71964,"type":"SCALAR"}],"asset":{"extras":{"author":"BazukaliKartal (https://sketchfab.com/BazukaliKartal)","license":"CC-BY-4.0 (http://creativecommons.org/licenses/by/4.0/)","source":"https://sketchfab.com/3d-models/old-oak-tree-810208743d0e4cffadb15e77211b3a60","title":"Old Oak Tree"},"generator":"Sketchfab-13.83.0","version":"2.0"},"bufferViews":[{"buffer":0,"byteLength":3786504,"name":"floatBufferViews","target":34963},{"buffer":0,"byteLength":6346896,"byteOffset":3786504,"byteStride":8,"name":"floatBufferViews","target":34962},{"buffer":0,"byteLength":6346896,"byteOffset":10133400,"byteStride":12,"name":"floatBufferViews","target":34962},{"buffer":0,"byteLength":4231264,"byteOffset":16480296,"byteStride":16,"name":"floatBufferViews","target":34962}],"buffers":[{"byteLength":20711560,"uri":"scene.bin"}],"images":[{"uri":"textures/Oak_Bark_diffuse.jpeg"},{"uri":"textures/Oak_Bark_specularGlossiness.png"},{"uri":"textures/Oak_Bark_normal.png"},{"uri":"textures/Oak_Bark_occlusion.png"},{"uri":"textures/Leaf__02_diffuse.png"},{"uri":"textures/Leaf__02_specularGlossiness.png"},{"uri":"textures/Leaf__02_normal.png"}],"materials":[{"doubleSided":true,"name":"Oak_Bark","normalTexture":{"index":2},"occlusionTexture":{"index":3},"pbrMetallicRoughness":{"baseColorFactor":[1,1,1,1],"metallicFactor":0,"roughnessFactor":0.9,"baseColorTexture":{"index":0}}},{"alphaMode":"BLEND","doubleSided":true,"name":"Leaf__02","normalTexture":{"index":6},"pbrMetallicRoughness":{"baseColorFactor":[1,1,1,1],"metallicFactor":0,"roughnessFactor":0.9,"baseColorTexture":{"index":4}}}],"meshes":[{"name":"Oak Tree_Oak Bark_0","primitives":[{"attributes":{"NORMAL":1,"POSITION":0,"TANGENT":2,"TEXCOORD_0":3,"TEXCOORD_1":4,"TEXCOORD_2":5},"indices":6,"material":0,"mode":4}]},{"name":"Oak Tree_Oak Bark_0","primitives":[{"attributes":{"NORMAL":8,"POSITION":7,"TANGENT":9,"TEXCOORD_0":10,"TEXCOORD_1":11,"TEXCOORD_2":12},"indices":13,"material":0,"mode":4}]},{"name":"Oak Tree_Oak Bark_0","primitives":[{"attributes":{"NORMAL":15,"POSITION":14,"TANGENT":16,"TEXCOORD_0":17,"TEXCOORD_1":18,"TEXCOORD_2":19},"indices":20,"material":0,"mode":4}]},{"name":"Oak Tree_Oak Bark_0","primitives":[{"attributes":{"NORMAL":22,"POSITION":21,"TANGENT":23,"TEXCOORD_0":24,"TEXCOORD_1":25,"TEXCOORD_2":26},"indices":27,"material":0,"mode":4}]},{"name":"Oak Leaf_Leaf _02_0","primitives":[{"attributes":{"NORMAL":29,"POSITION":28,"TANGENT":30,"TEXCOORD_0":31,"TEXCOORD_1":32,"TEXCOORD_2":33},"indices":34,"material":1,"mode":4}]}],"nodes":[{"children":[1],"matrix":[1,0,0,0,0,2.220446049250313e-16,-1,0,0,1,2.220446049250313e-16,0,0,0,0,1],"name":"Sketchfab_model"},{"children":[2],"matrix":[0.009999999776482582,0,0,0,0,0,0.009999999776482582,0,0,-0.009999999776482582,0,0,0,0,0,1],"name":"d198625950ac4d859638745654a58e27.fbx"},{"children":[3],"name":"RootNode"},{"children":[4,5,6,7,8],"matrix":[100,0,0,0,0,-0.00001629206793918314,-99.99999999999868,0,0,99.99999999999868,-0.00001629206793918314,0,0,0,0,1],"name":"Oak Tree"},{"mesh":0,"name":"Oak Tree_Oak Bark_0"},{"mesh":1,"name":"Oak Tree_Oak Bark_0"},{"mesh":2,"name":"Oak Tree_Oak Bark_0"},{"mesh":3,"name":"Oak Tree_Oak Bark_0"},{"children":[9],"matrix":[-0.6648632470074626,0.18578930123845533,-0.06287314355383397,0,-0.1703322166307276,-0.6570888920429292,-0.14048057701393468,0,-0.0972502840843537,-0.11929040829322558,0.6758888715511321,0,-12.983491897583008,5.081943988800049,20.74008560180664,1],"name":"Oak Leaf"},{"mesh":4,"name":"Oak Leaf_Leaf _02_0"}],"samplers":[{"magFilter":9729,"minFilter":9987,"wrapS":10497,"wrapT":10497}],"scene":0,"scenes":[{"name":"Sketchfab_Scene","nodes":[0]}],"textures":[{"sampler":0,"source":0},{"sampler":0,"source":1},{"sampler":0,"source":2},{"sampler":0,"source":3},{"sampler":0,"source":4},{"sampler":0,"source":5},{"sampler":0,"source":6}]}